<?xml version="1.0" encoding="utf-8"?>
<!-- Uploaded to: SVG Repo, www.svgrepo.com, Generator: SVG Repo Mixer Tools -->
<svg width="25" height="25" viewBox="-18 0 330.673 330.673" xmlns="http://www.w3.org/2000/svg"><defs><style>.a{fill:#ffffff;}.b{fill:#79c6e0;}.c{fill:#957f6e;}.d{fill:#211715;}.e{fill:#3f88c9;}</style></defs><path class="a" d="M37.116,171.962c-1.664-6.835-7.615-27.99-9.737-30.7-1.451-1.851-3.169-3.277-6.355-1.918-2.731,1.166-2.288,4.318-1.772,6.925.569,2.869,3.952,16.41,5.923,23.45a5.4,5.4,0,0,0-6.133-1.4c-2.166.989-3,2.836-2.759,4.17l.465,2.553a5.237,5.237,0,0,0-5.067.024c-1.872,1-3.757,3.684-2.835,5.619l1.236,2.594-.386-.317c-2.376-1.955-6.5-.751-7.174,1.854-.515,2,.354,4.361,1.467,6.19.133.217.274.45.424.693.138.428.217.67.217.67,1.509,4.674,4.448,11.817,8.851,16.907,2.043,2.359,4.4,4.7,6.256,7.232,2.393,3.269,2.465,7.006,4.167,11.074a192.018,192.018,0,0,0,25.005-10.58l-.372-1.719c-.706-3.255-1.483-7.486-1.022-10.244a69.771,69.771,0,0,1,3.11-9.122,16.888,16.888,0,0,0,1.3-7.63c-.326-2.965-1.094-7.206-3.3-10.3a5.976,5.976,0,0,0-1.609-1.519,1.473,1.473,0,0,0-.226-.136,8.273,8.273,0,0,0-1.836-.823q-.38-.121-.786-.217c-.136-.036-.271-.063-.407-.09a3.335,3.335,0,0,0-.389-.081c-.2-.046-.4-.073-.6-.1l-.389-.054c-.027,0-.063-.009-.1-.009a29.164,29.164,0,0,0-4.556-.118l-.248-1.265C37.413,173.218,37.287,172.666,37.116,171.962Z"/><path class="a" d="M191.684,312.861c-.572-3.729-1.126-7.627-1.629-11.753h-.232c-10.074,0-46.223.784-54.223.784l-1.148-.039c-.674,5.387-1.433,10.387-2.2,15.131-.423,2.028-.952,4.286-1.622,6.632l-1.2,4.15h65.592c-.63-2.441-1.156-4.484-1.156-4.484-.635-2.222-1.129-4.357-1.535-6.3Q192.007,314.955,191.684,312.861Z"/><path class="b" d="M143.478,301.808c-3.481.051-6.257.083-7.878.083l-1.157.026a314.354,314.354,0,0,0,2.448-39.864c0-21.785-1.27-43.182-1.817-52.513-.649-11.207-1.677-21.3-2.027-31.648l2.3.519a115.013,115.013,0,0,0,26.247,3.771c8.37.021,20.279-1.3,28.455-4.554l.135-.046c.257,10.642-.046,21.3-.653,31.958-.547,9.331-1.817,30.728-1.817,52.513a315.644,315.644,0,0,0,2.341,39.049l-.228.005C181.79,301.107,157.177,301.606,143.478,301.808Z"/><path class="c" d="M209.038,166.777c13.516,5.212,24.482-6.9,24.4-17.073a53.074,53.074,0,0,0-2.92-17.022c-2.405-7.486-7.064-22.695-7.4-49.868.669-7.649-.026-18.7-.329-22.945-1.048-14.721-7.63-31.161-17.1-40.3A57.919,57.919,0,0,0,185.246,6.137C178.662,3.6,172.54,2.38,160.987,2.38c-18.941,0-35.8,9.758-43.282,16.92C105.294,31.182,97.421,52.886,98.414,82.814c0,21.81-1.658,37.541-3.986,46.48a112.018,112.018,0,0,0-2.993,22.525c-.085,10.17,10.162,21.324,25.273,17.877Z"/><path class="a" d="M138.452,153.909a7.1,7.1,0,0,0,1.643-2.166c1.266-3.141,1.037-7.406,1.046-10.9A41.517,41.517,0,0,1,126.031,129a49.161,49.161,0,0,1-9.368-18.285l-1.847-.285a12.166,12.166,0,0,1-5.663-2.553,18.367,18.367,0,0,1-4.751-6.234,28.91,28.91,0,0,1-2.947-15.321,9.637,9.637,0,0,1,1.01-3.88,6.819,6.819,0,0,1,4.905-3.261,6.89,6.89,0,0,1,6.915,3.1c7.7-13.317,35.555-28.679,58.761-33.663,0,0,.873-.132,2.3-.333A17.247,17.247,0,0,1,190.222,53.4c8.62,9.031,13.872,20.065,16.938,30.139,1.707-1.545,2.951-2.668,2.951-2.668a7.222,7.222,0,0,1,5.781-1.691A6.819,6.819,0,0,1,220.8,82.44a9.637,9.637,0,0,1,1.01,3.88,28.91,28.91,0,0,1-2.947,15.321,18.379,18.379,0,0,1-4.751,6.234,12.165,12.165,0,0,1-5.664,2.553l-.97.151c-.464,1.739-.986,3.2-1.243,3.982-1.694,4.6-11.394,20.833-23.463,26.064.014,3.53-.242,7.923,1.056,11.118.87,2.15,4.95,5.34,9.24,8.24,0,0,7.387,5.131,6.165,9.687-1.327,4.947-9.185,7.958-9.185,7.958-8.176,3.252-20.085,4.575-28.455,4.554a115.013,115.013,0,0,1-26.247-3.771s-9.493-2.9-10.669-7.186c-1.889-6.888,5.741-11.452,5.741-11.452A50.276,50.276,0,0,0,138.452,153.909Z"/><path class="d" d="M211.808,82.567a4.741,4.741,0,0,1,6.723.751c.856,1.206.905,2.926.96,4.348a25.489,25.489,0,0,1-.293,5.185c-1.064,6.324-4.352,14.037-11.391,15.263a2.42,2.42,0,0,0-1.676,2.952,2.455,2.455,0,0,0,2.952,1.677c9.7-1.69,14.337-12.729,15.116-21.485.374-4.209.254-9.45-3.3-12.354a9.684,9.684,0,0,0-12.484.269,2.42,2.42,0,0,0,0,3.394,2.45,2.45,0,0,0,3.394,0Z"/><path class="d" d="M205.971,105.05a24,24,0,0,1-1.123,6c-.228.768-.479,1.529-.734,2.288-.084.25-.549,1.415-.242.727a48.236,48.236,0,0,1-3.22,5.913A57.613,57.613,0,0,1,187.9,134.717a24.3,24.3,0,0,1-9.5,4.82c-3.008.694-1.735,5.323,1.276,4.628,7.226-1.667,13.287-6.841,18.067-12.287a62.164,62.164,0,0,0,10.119-15.05,32.049,32.049,0,0,0,2.9-11.778c.106-3.09-4.695-3.086-4.8,0Z"/><path class="d" d="M114.848,79.173a9.685,9.685,0,0,0-12.485-.269c-3.554,2.9-3.675,8.144-3.3,12.354.779,8.758,5.413,19.8,15.115,21.485a2.47,2.47,0,0,0,2.953-1.677,2.421,2.421,0,0,0-1.677-2.952c-7.035-1.225-10.331-8.939-11.39-15.263a25.557,25.557,0,0,1-.293-5.185,8.132,8.132,0,0,1,.943-4.311,4.729,4.729,0,0,1,6.74-.788,2.464,2.464,0,0,0,3.394,0,2.421,2.421,0,0,0,0-3.394Z"/><path class="d" d="M112.793,104.416c2.643,15.236,10.922,30.169,25.051,37.5a34.142,34.142,0,0,0,12.292,3.668,2.415,2.415,0,0,0,2.4-2.4,2.454,2.454,0,0,0-2.4-2.4c-14.387-1.5-25.6-14.44-30.115-27.4a64.709,64.709,0,0,1-2.6-10.248,2.42,2.42,0,0,0-2.953-1.676,2.455,2.455,0,0,0-1.676,2.952Z"/><path class="d" d="M116.07,167.382c-6.412,1.412-13.156-.018-17.769-4.854a16.326,16.326,0,0,1-3.982-7.012c-.736-2.736-.477-5.761-.233-8.795a115.335,115.335,0,0,1,1.524-11.564c.52-2.832,1.288-5.6,1.874-8.416a148.336,148.336,0,0,0,2.455-18.759,255.675,255.675,0,0,0,.842-26.315A123.675,123.675,0,0,1,102.463,56.7c2.213-12.362,6.762-25.046,15.435-34.19A53.791,53.791,0,0,1,132.845,11.85a64.174,64.174,0,0,1,22.876-6.823,81.967,81.967,0,0,1,13.295,0,53.853,53.853,0,0,1,9.719,1.513,53.222,53.222,0,0,1,19.245,9.435,52.549,52.549,0,0,1,13.264,14.689,68.912,68.912,0,0,1,8.29,22.576c1.237,6.7,1.39,13.711,1.454,20.511.038,3.993-.318,7.973-.221,11.959.108,4.451.341,8.9.726,13.335a153.4,153.4,0,0,0,6.273,32.909,77.067,77.067,0,0,1,2.633,10c.6,3.474,1.059,7.538.295,10.8a16.977,16.977,0,0,1-11.421,12.35,15.208,15.208,0,0,1-9.6-.642,2.419,2.419,0,0,0-2.952,1.676,2.452,2.452,0,0,0,1.676,2.952,19.692,19.692,0,0,0,20.693-4.327,22.769,22.769,0,0,0,5.639-8.746,24.852,24.852,0,0,0,.9-10.754c-.567-6.4-2.648-12.319-4.394-18.441a137.659,137.659,0,0,1-3.541-16.176,187.707,187.707,0,0,1-2.119-24.7c-.107-4.2.26-8.386.211-12.589-.043-3.681-.2-7.36-.434-11.033a78.487,78.487,0,0,0-4.816-23.269c-2.9-7.61-6.957-15.04-12.781-20.821A62.38,62.38,0,0,0,189.932,5.5,60.009,60.009,0,0,0,169.016.23,72.641,72.641,0,0,0,141.85,3.023a71.49,71.49,0,0,0-20.7,10.345c-10.51,7.705-17.051,19.114-20.786,31.44a106.954,106.954,0,0,0-4.137,23.944c-.306,4.61-.309,9.214-.216,13.832.1,4.853-.067,9.731-.252,14.581a209.877,209.877,0,0,1-1.862,22.389c-.914,6.179-2.661,12.173-3.576,18.352a114.176,114.176,0,0,0-1.238,12.169,21.1,21.1,0,0,0,1.444,9.108,22.045,22.045,0,0,0,14.966,12.859,25.993,25.993,0,0,0,11.857-.032c3.015-.664,1.739-5.292-1.276-4.628Z"/><path class="d" d="M172.408,46.3a126.6,126.6,0,0,0-27.469,9.637,108.71,108.71,0,0,0-23.377,14.628,45.906,45.906,0,0,0-8.471,9.093c-1.748,2.556,2.41,4.96,4.145,2.422,3.982-5.824,10.407-10.594,16.475-14.47a128.2,128.2,0,0,1,24.9-12.261,114.521,114.521,0,0,1,15.069-4.421c3.018-.654,1.741-5.283-1.276-4.628Z"/><path class="d" d="M167.429,41.172c15.385,5.727,26.759,17.9,33.519,32.63a83.721,83.721,0,0,1,4.068,10.94c.883,2.952,5.517,1.694,4.628-1.276-4.669-15.611-13.414-30.144-26.9-39.638a61.649,61.649,0,0,0-14.04-7.285,2.422,2.422,0,0,0-2.953,1.677,2.452,2.452,0,0,0,1.676,2.952Z"/><path class="d" d="M180.365,141.863a50.393,50.393,0,0,0,.21,6.337,12.509,12.509,0,0,0,1.69,5.667c2.372,3.424,6.2,5.888,9.589,8.188a2.4,2.4,0,0,0,2.422-4.144c-1.614-1.095-3.218-2.214-4.728-3.45-.661-.541-1.308-1.1-1.921-1.7-.268-.26-.53-.526-.781-.8-.127-.14-.25-.283-.371-.428-.245-.293.265.433-.066-.09-.144-.23-.29-.451-.413-.694-.131-.259.131.389,0-.037-.072-.226-.153-.448-.218-.676a13.9,13.9,0,0,1-.45-2.294,53.655,53.655,0,0,1-.158-5.88c.02-3.089-4.78-3.093-4.8,0Z"/><path class="d" d="M138.745,142.073a51.44,51.44,0,0,1-.165,5.757,14.125,14.125,0,0,1-.482,2.362c-.066.222-.142.439-.219.658.054-.152.136-.232.017-.045-.085.133-.548.818-.212.393-2.189,2.771-5.511,4.655-8.48,6.5a2.4,2.4,0,0,0,2.422,4.144c1.939-1.206,3.853-2.459,5.668-3.846a20.629,20.629,0,0,0,4.277-4.045,11.192,11.192,0,0,0,1.7-5.211,48.078,48.078,0,0,0,.277-6.67c-.02-3.088-4.82-3.095-4.8,0Z"/><path class="a" d="M97.437,279.587c-4.185,5.342-9.82,12.425-15.01,16.218a29,29,0,0,1-25.071,4.6C46,297.421,39.533,287.4,34.808,276.653c-6.8-15.472-11.642-32.091-16.467-47.541,9.679-2.1,25.106-9.164,34.788-14.265,3.042,7.462,5.794,14.279,8.729,21.288,7.887-19.607,8.768-29.757,15.875-48.312a25.168,25.168,0,0,1,5.239-8.551c2.252-2.413,5.742-3.087,8.714-4.523,9.661-4.666,25.174-8.842,34.581-13.879l.93-.5c2.207-2.317,4.441-4.49,6.6-6.361-2.126,19.936.147,36.047,1.275,55.529.547,9.331,1.817,30.728,1.817,52.513a324.491,324.491,0,0,1-4.64,54.93c-.423,2.028-.952,4.286-1.622,6.632l-1.2,4.668c-15.427,0-34.277,0-34.277,0,2.611-19.315,5.667-45.577,5.667-49.74q0-1.56-.068-3.146C99.809,276.551,98.688,277.991,97.437,279.587Z"/><path class="a" d="M230.527,173.388c-9.987-3.982-23.754-8.172-31.593-12.37,0,0-.057-.03-.162-.092a88.629,88.629,0,0,0-10.387-8.693c2.342,19.034,2.231,38.173,1.142,57.307-.547,9.331-1.817,30.728-1.817,52.513a326.652,326.652,0,0,0,4.622,54.93c.406,1.94.9,4.075,1.535,6.3l1.2,4.484h34.4c-2.558-19.157-5.69-45.108-5.69-49.218l40.856-44.6c-6.7-17.506-7.882-27.549-14.587-45.055a25.226,25.226,0,0,0-5.253-8.573c-2.257-2.419-5.756-3.095-8.735-4.534C234.428,175,232.556,174.2,230.527,173.388Z"/><path class="d" d="M134.705,180.725a118.212,118.212,0,0,0,22.5,3.7,92.763,92.763,0,0,0,21.74-1.362,60.239,60.239,0,0,0,11.739-3.119,2.473,2.473,0,0,0,1.676-2.953,2.418,2.418,0,0,0-2.952-1.676,70.927,70.927,0,0,1-20.5,4.187,90.314,90.314,0,0,1-20.782-.893,118.009,118.009,0,0,1-12.14-2.512c-2.989-.792-4.264,3.837-1.276,4.629Z"/><path class="d" d="M125.056,158.8c-5.714,3.034-11.892,5.135-17.964,7.319-3.236,1.164-6.475,2.322-9.676,3.58-2.927,1.15-5.741,2.572-8.667,3.711C85.424,174.7,82.5,176,80.185,178.82a33.29,33.29,0,0,0-5.288,9.74c-2.506,6.686-4.581,13.506-6.545,20.366-2.239,7.822-4.581,15.594-7.484,23.2a2.42,2.42,0,0,0,1.677,2.953A2.454,2.454,0,0,0,65.5,233.4c4.951-12.973,7.993-26.527,12.593-39.612a46.131,46.131,0,0,1,4.22-9.8A14.629,14.629,0,0,1,85.5,180.2a15.439,15.439,0,0,1,3.809-1.884c2.824-1.093,5.531-2.444,8.34-3.573,3.1-1.246,6.241-2.383,9.383-3.514,6.9-2.485,13.956-4.837,20.45-8.285,2.73-1.45.307-5.594-2.422-4.145Z"/><path class="d" d="M72.286,254.147c-5.95-13.172-11.388-26.555-16.842-39.938a2.447,2.447,0,0,0-3.526-1.434q-8.433,4.434-17.211,8.18a97.906,97.906,0,0,1-17,5.843,2.421,2.421,0,0,0-1.676,2.952c3.081,9.873,6.05,19.785,9.462,29.551,1.762,5.041,3.641,10.043,5.706,14.968a95.607,95.607,0,0,0,5.739,11.9c4.238,7.148,10.143,13.387,18.187,16.079a31.791,31.791,0,0,0,26.493-3.01c8.123-5,13.836-13.311,19.65-20.665a2.477,2.477,0,0,0,0-3.394,2.416,2.416,0,0,0-3.394,0c-4.954,6.266-9.754,13.081-16.052,18.093a26.955,26.955,0,0,1-22.943,5.044c-7.492-1.756-13.02-6.944-17.032-13.317-4.794-7.616-7.926-16.318-10.941-24.751-3.746-10.481-6.931-21.15-10.247-31.772l-1.676,2.952a102.811,102.811,0,0,0,17.782-6.17q8.956-3.8,17.58-8.336l-3.526-1.435c5.61,13.766,11.205,27.535,17.326,41.084a2.417,2.417,0,0,0,3.284.861,2.456,2.456,0,0,0,.861-3.283Z"/><path class="d" d="M39.8,172.944c-.721-3.615-1.8-7.184-2.8-10.73-1.423-5.068-2.9-10.129-4.6-15.111-1.309-3.834-2.606-8.614-6.778-10.261-3.431-1.354-7.967.541-8.908,4.219-.643,2.514.057,5.2.627,7.671,1.592,6.9,3.36,13.765,5.234,20.591.817,2.975,5.449,1.712,4.628-1.276-1.592-5.8-3.075-11.637-4.494-17.485-.47-1.936-1-3.882-1.312-5.851-.15-.938-.3-2.24.125-2.831a2.632,2.632,0,0,1,2.532-.522,3.757,3.757,0,0,1,1.045.9c.117.129.545.7.253.271a3.254,3.254,0,0,1,.19.288c.261.481.5.966.724,1.467.167.375-.183-.47.042.1.065.166.133.33.2.5.167.425.328.853.486,1.281.338.921.659,1.849.972,2.779,1.558,4.629,2.936,9.32,4.263,14.02,1.049,3.717,2.188,7.459,2.944,11.251a2.4,2.4,0,1,0,4.629-1.276Z"/><path class="d" d="M2.315,193.011a54.543,54.543,0,0,0,7.84,15.928c2.081,2.768,4.591,5.163,6.776,7.843,2.131,2.613,2.782,5.575,3.71,8.74.867,2.958,5.5,1.7,4.629-1.276-.925-3.154-1.605-6.428-3.595-9.125-2.135-2.894-4.738-5.37-7.009-8.147-3.594-4.395-5.976-9.877-7.722-15.239-.953-2.924-5.589-1.673-4.629,1.276Z"/><path class="d" d="M40.318,190.835a40.211,40.211,0,0,0-1.148-4.818,6.111,6.111,0,0,0-2.557-3.615,10.643,10.643,0,0,0-4.424-1.249c-.378-.054-.764-.185-1.154-.208s-.252-.1-.054.033c.428.279-.255-.4-.338-.62a1.617,1.617,0,0,1-.043-1.133c.035-.129.593-1.247.34-1,.744-.72,2.911-.7,3.913-.787,1.4-.116,2.8-.209,4.2-.223a17.253,17.253,0,0,1,4.278.355,5.749,5.749,0,0,1,3.126,1.546,10.271,10.271,0,0,1,1.8,3.4,20.682,20.682,0,0,1,1.311,7.076c-.093,3.969-2.021,7.345-3.268,11.087-.3.907-.6,1.817-.865,2.737-.076.266-.156.533-.21.8s-.073.521-.108.782c.1-.752-.068.488-.087.706-.3,3.392.483,6.922,1.192,10.22.649,3.018,5.277,1.741,4.629-1.276a34.85,34.85,0,0,1-.936-9.606c-.022.367-.15.61.019.113.116-.34.2-.7.3-1.042.329-1.082.687-2.156,1.054-3.226.316-.92.639-1.837.986-2.745.077-.2.157-.4.235-.6.235-.6-.209.426.028-.071.265-.556.535-1.108.751-1.685a17.573,17.573,0,0,0,1-7.8,28.4,28.4,0,0,0-2.4-9.153A10.393,10.393,0,0,0,44.4,172.9a32.911,32.911,0,0,0-9.987-.221,17.542,17.542,0,0,0-4.823.9,5.807,5.807,0,0,0-3.341,3.62c-1.347,3.373.221,7.793,4.043,8.5,1.06.2,3.206.067,3.971.935a6.379,6.379,0,0,1,.71,2.373,26.165,26.165,0,0,1,.716,3.115,2.416,2.416,0,0,0,2.952,1.677,2.463,2.463,0,0,0,1.676-2.953Z"/><path class="d" d="M13.528,192.657c.112.4.023-.515.013.038-.011.573.128-.31-.008.092-.053.157-.33.768-.053.258-.118.216-.22.438-.352.647-.065.1-.144.2-.206.309.015-.026.277-.3.093-.12-.149.148-.277.317-.429.464-.014.013-.209.226-.257.233.006,0,.485-.306.089-.078-.067.038-.136.08-.2.122-.444.292.108-.049.109-.032s-.772.208-.4.119c.327-.077-.067,0-.159.009s-.2.009-.3.01c-.122,0-.937-.07-.373.011a6.557,6.557,0,0,1-.808-.171c-.132-.036-.261-.081-.393-.121-.036-.012-.355-.134-.092-.027.238.1-.334-.178-.427-.234-.111-.066-.216-.139-.324-.211.075.05.361.322.057.028-.187-.181-.375-.358-.551-.55s-.315-.371-.475-.555c-.242-.277.194.279-.022-.028-.064-.089-.131-.176-.2-.265-.342-.475-.664-.963-.977-1.457a25.2,25.2,0,0,1-1.58-2.754c-.03-.064-.161-.424-.028-.067-.041-.109-.082-.217-.12-.326-.089-.254-.169-.51-.236-.77-.038-.147-.064-.3-.1-.444-.023-.087-.066-.47-.019-.027-.031-.293-.017-.585-.035-.877-.006-.1.049-.476-.024-.006.016-.105.038-.211.063-.314a3.226,3.226,0,0,0,.09-.322c.03-.247-.05.23-.1.225,0,0,.129-.23.144-.263.152-.323.03.184-.113.117.006,0,.4-.412.425-.441.264-.266-.105.131-.117.085a1.829,1.829,0,0,1,.266-.172c.092-.055.19-.1.281-.156.363-.221-.317.066-.052.013.212-.042.419-.142.631-.192.108-.026.22-.038.326-.067.281-.076-.581.016-.056.018.223,0,.447,0,.67,0,.39,0-.145-.018-.138-.025.024-.025.29.06.329.069.108.027.214.067.323.094.405.1-.22-.178-.028-.019.124.1.8.518.3.133a2.465,2.465,0,0,0,3.394,0c.794-.865,1.054-2.566,0-3.4a7.4,7.4,0,0,0-8.269-.7C.215,182.182-.489,185.455.3,188.507a16,16,0,0,0,1.959,4.277A29.77,29.77,0,0,0,4.9,196.537a8.542,8.542,0,0,0,8.359,2.778c3.159-.738,5.8-4.753,4.9-7.934a2.4,2.4,0,0,0-4.628,1.276Z"/><path class="d" d="M19.185,173.99c-2.734-3-7.595-2.311-10.363.223a7.643,7.643,0,0,0-2.617,5.294C6.2,181.43,7.4,183.225,8.342,184.83c1.5,2.56,3.3,5.02,5.017,7.449a16.366,16.366,0,0,0,2.578,3.123,7.851,7.851,0,0,0,5.281,1.67c4.8-.206,7.478-4.9,6.265-9.321-.815-2.976-5.447-1.712-4.628,1.276a4.535,4.535,0,0,1,.165.772c.012.145.008.291.007.436,0,.031-.06.469-.007.178a2.057,2.057,0,0,1-.536,1.224c.223-.3-.21.183-.285.264-.18.194.044-.011.085-.042-.079.06-.163.114-.246.167a1.607,1.607,0,0,1-1.092.251,3.584,3.584,0,0,1-1.372-.242,1.82,1.82,0,0,0-.465-.217c-.035-.008-.324-.189.033.041.333.215-.033-.038-.095-.1-.287-.3-.556-.6-.822-.917-.17-.2.013.024.039.057-.094-.121-.185-.244-.275-.366-.165-.223-.326-.449-.486-.675-1.2-1.7-2.369-3.42-3.546-5.13a40.112,40.112,0,0,1-2.323-3.838c-.162-.3-.309-.616-.475-.917-.176-.319-.091-.056-.163-.379.059.261,0-.078,0-.068a2.533,2.533,0,0,1,.225-.662,4.124,4.124,0,0,1,1.094-1.348,2.948,2.948,0,0,1,1.192-.6,3.215,3.215,0,0,1,1.333-.09c-.254-.047.24.071.29.088.391.13-.275-.108.106.029.4.145.206.059.553.44a2.4,2.4,0,1,0,3.394-3.394Z"/><path class="d" d="M30.091,184.121a3.257,3.257,0,0,1-.218,1.72c.129-.3-.346.516-.2.309a4.356,4.356,0,0,0-.424.431,2.252,2.252,0,0,1-.849.389c-.411.131-.163.055-.027.037a1.9,1.9,0,0,1-.361.02.792.792,0,0,1-.356-.092,5.768,5.768,0,0,1-2.1-2.37c-.938-1.54-1.9-3.061-2.877-4.578-1.616-2.519-3.337-5.043-4.036-7.879-.009-.038-.095-.459-.027-.131.073.349.12-.276.008.025-.132.353.226-.653.029-.188a1.946,1.946,0,0,1,.749-.946,2.788,2.788,0,0,1,2.987-.29,8.515,8.515,0,0,1,2.68,2.771c.893,1.17,1.761,2.37,2.541,3.619,1.632,2.615,5.786.208,4.145-2.423a53.987,53.987,0,0,0-3.195-4.469,11.569,11.569,0,0,0-4.026-3.776c-3.964-1.849-9.4-.126-10.532,4.426-.475,1.916.275,3.856,1.039,5.589a41.5,41.5,0,0,0,3.1,5.475c1.181,1.853,2.329,3.726,3.507,5.579a9.616,9.616,0,0,0,4.533,4.133,6.517,6.517,0,0,0,6.227-1.334,7.257,7.257,0,0,0,2.482-6.047,2.45,2.45,0,0,0-2.4-2.4,2.423,2.423,0,0,0-2.4,2.4Z"/><path class="d" d="M199.8,164.139c11.405,5.429,23.777,8.476,35.223,13.8,2.84,1.322,6.189,1.984,8.365,4.384a27.078,27.078,0,0,1,5.041,9.042c2.465,6.614,4.5,13.362,6.446,20.145,2.226,7.781,4.561,15.509,7.452,23.074a2.469,2.469,0,0,0,2.952,1.676,2.418,2.418,0,0,0,1.676-2.952c-5.186-13.574-8.3-27.789-13.244-41.44-1.284-3.546-2.561-7.137-4.767-10.232a15.431,15.431,0,0,0-8.5-6.631c-2.8-1.109-5.518-2.4-8.309-3.541-3.065-1.252-6.176-2.389-9.29-3.513-6.919-2.5-13.975-4.791-20.627-7.958a2.466,2.466,0,0,0-3.283.861,2.421,2.421,0,0,0,.861,3.284Z"/><path class="d" d="M83.918,178.6c1.926,20.374,4.626,40.746,8.226,60.892.79,4.416,1.635,8.825,2.615,13.2A150.716,150.716,0,0,1,97.987,270.4a61.759,61.759,0,0,1,.25,11.251c-.293,3.6-.683,7.183-1.076,10.768q-1.936,17.64-4.324,35.228a2.484,2.484,0,0,0,1.676,2.953,2.417,2.417,0,0,0,2.952-1.677q2.187-16.194,4.04-32.433c.8-7.044,1.957-14.223,1.635-21.331-.5-11.065-3.5-21.7-5.553-32.521-1.959-10.317-3.543-20.706-4.979-31.107-1.513-10.948-2.85-21.928-3.89-32.932a2.466,2.466,0,0,0-2.4-2.4,2.417,2.417,0,0,0-2.4,2.4Z"/><path class="d" d="M131.2,155.981c-1.112,12.125-.6,24.247.272,36.368.711,9.831,1.385,19.658,1.885,29.5,1.176,23.152,1.947,46.454-.173,69.574q-.715,7.8-1.819,15.566a120.474,120.474,0,0,1-3.051,15.986c-.841,2.978,3.789,4.249,4.629,1.276a112.341,112.341,0,0,0,2.835-14.486c.686-4.708,1.3-9.428,1.794-14.16a321.776,321.776,0,0,0,1.719-33.8c-.008-21.635-1.077-43.29-2.68-64.863-1.015-13.653-1.864-27.29-.611-40.96a2.417,2.417,0,0,0-2.4-2.4,2.452,2.452,0,0,0-2.4,2.4Z"/><path class="d" d="M127.04,248.19c-2.873-8.475-5.533-17.02-8.233-25.552-1.344-4.246-2.694-8.491-4.085-12.721-.531-1.616-1.074-3.233-1.458-4.892a10.976,10.976,0,0,1-.306-2.167c-.011-.372-.024.108-.037.165a3.624,3.624,0,0,1,.1-.372,2.066,2.066,0,0,1,.2-.507,38.5,38.5,0,0,1,7.153-9.344,2.433,2.433,0,0,0,0-3.394,60.379,60.379,0,0,1-4.947-5.232c-.72-.862-1.357-1.787-2.066-2.655-.232-.285-.131-.53-.207-.211a3.838,3.838,0,0,1,.64-.927c2.017-2.852,4.157-5.619,6.359-8.329a121.036,121.036,0,0,1,16.7-17.485,2.417,2.417,0,0,0,0-3.394,2.455,2.455,0,0,0-3.394,0,113.562,113.562,0,0,0-14.438,14.749q-3.314,3.925-6.417,8.021-1.285,1.689-2.526,3.411c-1.078,1.5-2.114,3.07-1.6,5.017.525,2.008,2.4,3.82,3.7,5.37a60.223,60.223,0,0,0,4.8,5.059v-3.394a50.827,50.827,0,0,0-7.291,9.19,9.253,9.253,0,0,0-1.525,4.122,17.926,17.926,0,0,0,1.063,5.757c2.607,8.7,5.538,17.321,8.289,25.977,1.595,5.017,3.209,10.028,4.9,15.014.987,2.91,5.625,1.661,4.629-1.276Z"/><path class="d" d="M135.6,304.291c14.765-.006,29.534-.475,44.3-.686,3.308-.047,6.617-.1,9.926-.1,3.088,0,3.093-4.8,0-4.8-15.123.006-30.249.457-45.369.686-2.951.045-5.9.1-8.854.1-3.088,0-3.093,4.8,0,4.8Z"/><path class="d" d="M231.873,327.764q-2.123-15.908-3.99-31.848c-.814-7-1.96-14.115-1.6-21.183.551-10.867,3.593-21.34,5.58-31.987,1.915-10.253,3.477-20.573,4.893-30.9,1.515-11.054,2.878-22.133,3.928-33.241a2.417,2.417,0,0,0-2.4-2.4,2.452,2.452,0,0,0-2.4,2.4c-1.9,20.066-4.556,40.125-8.117,59.964-1.894,10.55-4.822,20.941-5.929,31.618a60.623,60.623,0,0,0-.279,11.3c.3,3.631.709,7.255,1.117,10.876,1.332,11.817,2.825,23.618,4.4,35.406a2.48,2.48,0,0,0,2.4,2.4c1.164,0,2.573-1.106,2.4-2.4Z"/><path class="d" d="M194.57,159.012a103.926,103.926,0,0,1,12.591,14.381c.966,1.327,1.916,2.665,2.864,4l1.619,2.292a8.82,8.82,0,0,0,.862,1.227c.08.079.335.689.313.178.02.469-.916,1.328-1.188,1.679-.644.83-1.319,1.637-2.011,2.427-1.286,1.469-2.648,2.866-4.069,4.205a2.436,2.436,0,0,0,0,3.394,69.438,69.438,0,0,1,6.058,6.65A8.006,8.006,0,0,1,213,201.887c.027.1.092-.321-.032.14-.018.068-.012.129-.066.441q-.171.977-.381,1.945c-1.4,6.43-3.84,12.65-5.79,18.928-.918,2.957,3.714,4.222,4.628,1.276,1.221-3.928,2.455-7.853,3.757-11.756a64.076,64.076,0,0,0,2.305-8.5,8.6,8.6,0,0,0,.184-3.849,10.852,10.852,0,0,0-1.849-3.483,75.086,75.086,0,0,0-6.808-7.621V192.8a60.367,60.367,0,0,0,4.657-4.887c1.292-1.524,3.06-3.269,3.723-5.2.754-2.189-.453-3.916-1.665-5.633-1.151-1.63-2.3-3.262-3.464-4.882a114.878,114.878,0,0,0-14.232-16.585c-2.241-2.125-5.642,1.264-3.394,3.394Z"/><path class="d" d="M196.181,322.642a110.5,110.5,0,0,1-2.764-14.317q-.969-6.715-1.669-13.467a325.272,325.272,0,0,1-1.637-33.8c.022-11.946.4-23.889.966-35.82.458-9.614,1.143-19.217,1.427-28.838a295.018,295.018,0,0,0-1.615-43.305,2.473,2.473,0,0,0-2.4-2.4,2.415,2.415,0,0,0-2.4,2.4,286.5,286.5,0,0,1,1.722,38.843c-.185,10.107-.876,20.187-1.386,30.28-1.168,23.162-1.919,46.469.226,69.595.5,5.389,1.149,10.761,1.9,16.12a119.683,119.683,0,0,0,3,15.987c.837,2.968,5.47,1.707,4.629-1.276Z"/><path class="a" d="M173.631,253.9a31.435,31.435,0,0,0-3.216,3.538,60.773,60.773,0,0,0,5.516,5.1l.54.4c3.126-4.438,7.243-7.1,12.138-9.057a56.623,56.623,0,0,1,22.84-4.1c7.718.255,16.238,2.679,21.992,8.169,4.7-5.394,13.482-9.58,20.26-11.273a61.151,61.151,0,0,1,20.5-1.09,33.149,33.149,0,0,1,11.829,3.375l.155-.154c1.2-1.139,3.6-3.537,5.636-5.695-7.374-5.576-11.509-6.408-20.2-7.254-6.617-.644-14.136-.861-20.6.755s-14.767,4.314-19.364,9.428c-5.175-3.649-12.417-5.716-20.2-5.973a56.606,56.606,0,0,0-22.84,4.1,40.853,40.853,0,0,0-9.381,5A64.526,64.526,0,0,0,173.631,253.9Z"/><path class="e" d="M267.278,276.933c5-4.45,20.783-19.276,25.019-23.514-3.477-3.6-10.121-7.095-18.1-7.838a61.151,61.151,0,0,0-20.5,1.09c-6.778,1.693-15.557,5.879-20.26,11.273-5.754-5.49-14.274-7.914-21.992-8.169a56.623,56.623,0,0,0-22.84,4.1c-5.9,2.357-10.666,5.739-13.937,12.014,4.522,3.954,21.288,16.84,25.993,20.574Z"/><path class="a" d="M245.3,267.618q-.41-.332-.827-.653c-3.546-2.739-6.118-3.168-9.761-1.132l-1.957,1.7c-1.491-1.581-2.755-2.892-3.294-3.36a6.087,6.087,0,0,0-5.841-1.312c-2.3.857-3.268,2.116-3.268,4.045l-.219,1.64c-1.221-1.293-2.321-2.406-3.16-3.158-.711-.637-4.173-2.343-6.477-.612-2.032,1.527-2.346,3.57-1.169,5.365a7.154,7.154,0,0,1,.338.642l-.516-.269a5.243,5.243,0,0,0-7.417,2.672,7.525,7.525,0,0,0,.593,4.925c1.493,2.886,8.015,10.124,11.535,13.844,8.065,5.7,20.935,1.731,31.244-.665a13.6,13.6,0,0,0,4.085-1.758c3.856-2.676,5.841-5.965,8.991-9.445a24.475,24.475,0,0,0,3.536-4.287c1.026-2,1.872-4.182,1.3-6.359a4.788,4.788,0,0,0-1.8-2.86c-1.534-1.011-3.586-.529-5.286.166a26.328,26.328,0,0,0-7,4.237A32.627,32.627,0,0,0,245.3,267.618Z"/><path class="d" d="M247.978,287.459c-2.194,1.508-4.99,1.865-7.525,2.476-2.986.72-5.98,1.426-9.011,1.934-5.183.87-11.071,1.282-15.741-1.561-2.646-1.611-5.06,2.539-2.423,4.145,5.6,3.408,12.392,3.144,18.634,2.175,3.24-.5,6.436-1.25,9.621-2.017,3-.723,6.27-1.222,8.867-3.007a2.461,2.461,0,0,0,.861-3.284,2.421,2.421,0,0,0-3.283-.861Z"/><path class="d" d="M252.506,271.6a30.7,30.7,0,0,0-8.56-7.9,10.067,10.067,0,0,0-5.055-1.533,11.274,11.274,0,0,0-5.391,1.6,2.4,2.4,0,1,0,2.423,4.145c.276-.151.794-.421.916-.474-.137.06.247-.1.29-.111.149-.053.3-.1.451-.148a6.45,6.45,0,0,1,.988-.225c-.474.063.271.011.429.014.062,0,.641.04.313.007-.288-.029.153.033.206.044a7.26,7.26,0,0,1,.845.239c.132.047.472.2.175.063.147.069.292.14.435.215.344.18.677.379,1,.59a25.792,25.792,0,0,1,3.4,2.71,26.833,26.833,0,0,1,2.991,3.191,2.477,2.477,0,0,0,3.284.861,2.416,2.416,0,0,0,.861-3.283Z"/><path class="d" d="M242.1,273.951c-2.468-2.322-4.679-4.956-7-7.426-1.15-1.225-2.29-2.468-3.5-3.636a8.94,8.94,0,0,0-7.685-2.576,6.885,6.885,0,0,0-5.965,6.592c-.069,3.09,4.731,3.089,4.8,0,0-.163.007-.326.022-.488-.033.252-.023.239.033-.04q.137-.4-.017-.042a3.4,3.4,0,0,1,.212-.377c-.235.367.273-.266.382-.35-.239.185.519-.275.614-.32a3.166,3.166,0,0,1,2.947.077c1.47.7,2.626,2.292,3.719,3.447,2.675,2.827,5.2,5.865,8.039,8.533,2.248,2.116,5.649-1.271,3.394-3.394Z"/><path class="d" d="M206.483,286.433c-8.192-6.479-16.945-12.254-25.317-18.5q-.816-.609-1.629-1.223c-.234-.178-.467-.355-.7-.534l-.333-.255c-.3-.233.429.336-.066-.052-.7-.549-1.4-1.1-2.069-1.681l.375,2.908a21.755,21.755,0,0,1,6.938-7.97,38.463,38.463,0,0,1,10.889-4.78c8.251-2.416,17.335-3.146,25.7-.845a27.1,27.1,0,0,1,11.477,6.136,2.428,2.428,0,0,0,3.394,0c4.776-5.382,12-8.792,18.872-10.572a51.588,51.588,0,0,1,13.959-1.45,43.868,43.868,0,0,1,12.991,1.818,23.977,23.977,0,0,1,9.64,5.679v-3.394c-7.481,7.465-15.488,14.452-23.321,21.544q-2.534,2.293-5.079,4.574c-2.311,2.059,1.093,5.444,3.394,3.394q11.985-10.68,23.713-21.653c1.577-1.473,3.16-2.941,4.688-4.465a2.439,2.439,0,0,0,0-3.394c-6.184-6.285-15.118-8.388-23.627-8.819a54.927,54.927,0,0,0-27.37,5.22,36.355,36.355,0,0,0-11.254,8.124h3.394c-6.578-6.17-15.76-8.76-24.622-8.894a58.39,58.39,0,0,0-15.642,1.93,46.6,46.6,0,0,0-12.737,5.133,26.738,26.738,0,0,0-9.537,10.261,2.445,2.445,0,0,0,.375,2.909c3.472,3.018,7.313,5.659,11.031,8.362,4.718,3.431,9.469,6.819,14.188,10.249q1.556,1.131,3.1,2.273.581.43,1.158.867c.088.067.68.519.364.276s.181.142.272.214a2.477,2.477,0,0,0,3.394,0,2.417,2.417,0,0,0,0-3.394Z"/><path class="d" d="M177.142,260.459c.613.466-.1-.094-.209-.187-.254-.214-.5-.433-.755-.653q-.822-.725-1.626-1.47a22.861,22.861,0,0,1-2.44-2.411v3.394a42.387,42.387,0,0,1,20.223-13.791,51.185,51.185,0,0,1,26.089-2.1,31.771,31.771,0,0,1,12.01,4.865,2.409,2.409,0,0,0,2.908-.375,25.344,25.344,0,0,1,9.517-6.072,58.106,58.106,0,0,1,11.527-3.307,59.365,59.365,0,0,1,13.78-.386,64.017,64.017,0,0,1,11.615,1.528,30.964,30.964,0,0,1,10.826,5.683l-.486-3.769c-1.836,1.938-3.7,3.851-5.636,5.695-2.239,2.137,1.159,5.528,3.394,3.394,1.932-1.843,3.8-3.757,5.636-5.695a2.445,2.445,0,0,0-.486-3.769,35.257,35.257,0,0,0-10.771-5.832,58.477,58.477,0,0,0-12.137-1.886,69.956,69.956,0,0,0-14.859.095,57.948,57.948,0,0,0-12.963,3.344c-4.53,1.709-9.032,3.97-12.351,7.583l2.909-.375c-7.338-5.091-16.835-6.669-25.6-6.275-9.4.421-19.325,3.043-27.333,8.089a44.406,44.406,0,0,0-11.2,9.96,2.509,2.509,0,0,0,0,3.394,33.96,33.96,0,0,0,6,5.472,2.414,2.414,0,0,0,3.283-.861,2.46,2.46,0,0,0-.861-3.284Z"/><path class="d" d="M210.36,268.441a7.721,7.721,0,0,0-8.333.578,6.933,6.933,0,0,0-2.864,6.089,11.616,11.616,0,0,0,2.647,6.568c1.513,2.03,3.144,3.97,4.808,5.877q2.694,3.086,5.51,6.061c2.126,2.251,5.516-1.148,3.394-3.394q-2.6-2.753-5.1-5.6c-1.651-1.877-3.446-3.96-4.744-5.747a12.374,12.374,0,0,1-1.33-2.062,5.044,5.044,0,0,1-.391-2.021c0-.067.034-.822-.005-.5.01-.081.211-.855.071-.454s.144-.231.193-.311c.3-.5-.313.306.12-.156a5.614,5.614,0,0,1,.656-.625c-.31.238.286-.155.318-.173a2.775,2.775,0,0,1,2.629.011,2.462,2.462,0,0,0,3.284-.861,2.421,2.421,0,0,0-.861-3.283Z"/><path class="d" d="M231.126,277.049c-2.32-2.514-4.582-5.082-6.891-7.608-1.14-1.248-2.287-2.489-3.466-3.7a17.457,17.457,0,0,0-2.958-2.7c-3.5-2.221-8.373-1.867-10.671,1.868-2.623,4.264,1.211,8.127,3.762,11.248a126.146,126.146,0,0,0,9.041,10.111c2.2,2.171,5.6-1.221,3.395-3.394-2.513-2.477-4.879-5.081-7.135-7.793-1.148-1.38-2.278-2.776-3.416-4.164a13.38,13.38,0,0,1-1.388-1.992,4.811,4.811,0,0,1-.289-.552c-.015-.046-.137-.569-.08-.319.05.215.069-.406-.008-.062a2.039,2.039,0,0,1,2.246-1.561c.441.029-.262-.055.166.019.13.022.26.053.388.085a7.1,7.1,0,0,1,.956.308c-.354-.144.27.142.391.211.092.053.191.128.288.175.383.185-.306-.339-.118-.091a32.566,32.566,0,0,0,2.559,2.534c1.029,1.075,2.039,2.169,3.042,3.269,2.275,2.49,4.5,5.021,6.792,7.5a2.4,2.4,0,0,0,3.394-3.394Z"/><path class="d" d="M251.809,271.756a27.658,27.658,0,0,1,4.212-2.451c.959-.445,2.46-1.2,3.549-.867.856.258,1.161,1.442,1.226,2.225a7.747,7.747,0,0,1-1.3,4.2,16.985,16.985,0,0,1-2.461,2.935c-1,1.066-1.937,2.181-2.863,3.309a33.289,33.289,0,0,1-6.192,6.355,2.467,2.467,0,0,0-.861,3.284,2.42,2.42,0,0,0,3.283.861c3.253-2.305,5.61-5.282,8.153-8.3,1.115-1.323,2.342-2.541,3.466-3.854a15.749,15.749,0,0,0,3.024-5.331c1.27-3.775.179-9.1-4.167-10.291-3.908-1.071-8.422,1.631-11.49,3.783a2.466,2.466,0,0,0-.861,3.284,2.422,2.422,0,0,0,3.284.861Z"/><path class="d" d="M152.815,119.856a19.354,19.354,0,0,0,9.319,2.157,15.154,15.154,0,0,0,9.4-2.771,2.412,2.412,0,0,0,0-3.394,2.462,2.462,0,0,0-3.394,0c.727-.566.157-.129-.029-.009s-.381.231-.578.334c-.163.086-.872.367-.217.125-.265.1-.526.2-.8.289a13.893,13.893,0,0,1-2.227.508c.352-.052-.081.006-.218.019q-.329.033-.657.054c-.527.034-1.055.048-1.583.045-.473,0-.946-.019-1.417-.051-.217-.015-.434-.032-.65-.054-.02,0-.8-.111-.32-.035a15.926,15.926,0,0,1-2.08-.462c-.292-.087-.576-.192-.863-.29-.616-.211.346.18-.209-.082-.357-.168-.709-.343-1.058-.528a2.451,2.451,0,0,0-3.283.861,2.426,2.426,0,0,0,.861,3.284Z"/><path class="d" d="M160.925,97.888a43.679,43.679,0,0,1,1.03,4.715l-.085-.638a2.885,2.885,0,0,1,.017.65l.086-.638a1.546,1.546,0,0,1-.071.293l.241-.573a1.145,1.145,0,0,1-.1.188l.375-.486a.963.963,0,0,1-.154.152l.486-.375a3.087,3.087,0,0,1-.373.2l.573-.241a2.765,2.765,0,0,1-.629.183l.638-.086a2.486,2.486,0,0,1-.591,0l.638.086c-.223-.031-.442-.085-.664-.115a1.823,1.823,0,0,0-.957-.043,1.788,1.788,0,0,0-.893.285,2.4,2.4,0,0,0-.861,3.283,2.292,2.292,0,0,0,1.435,1.1c.505.069,1,.2,1.51.22a4.824,4.824,0,0,0,2.223-.529,3.2,3.2,0,0,0,1.778-2.113,5.309,5.309,0,0,0-.022-2.279c-.257-1.519-.608-3.024-1-4.514a2.4,2.4,0,1,0-4.628,1.276Z"/><path class="d" d="M135.978,84.54c-.787,2.559-.274,8.445,4.573,8.946,6.407-.039,6.748-7.155,4.591-10.5C143.376,80.246,138.184,79.106,135.978,84.54Z"/><path class="d" d="M187.284,84.54c.787,2.559.274,8.445-4.573,8.946-6.407-.039-6.748-7.155-4.592-10.5C179.885,80.245,185.077,79.106,187.284,84.54Z"/></svg>